<?xml version="1.0" encoding="utf-8"?>
<!-- Generator: Adobe Illustrator 16.0.0, SVG Export Plug-In . SVG Version: 6.00 Build 0)  -->
<!DOCTYPE svg PUBLIC "-//W3C//DTD SVG 1.1//EN" "http://www.w3.org/Graphics/SVG/1.1/DTD/svg11.dtd">
<svg version="1.1" id="Layer_1" xmlns="http://www.w3.org/2000/svg" xmlns:xlink="http://www.w3.org/1999/xlink" x="0px" y="0px"
	 width="471.891px" height="578.459px" viewBox="0 0 471.891 578.459" enable-background="new 0 0 471.891 578.459"
	 xml:space="preserve">
<rect x="95.387" y="121.963" fill="#728E79" width="54.57" height="272.855"/>
<rect x="257.915" y="121.963" fill="#728E79" width="54.574" height="272.855"/>
<rect x="95.387" y="231.105" fill="#728E79" width="217.103" height="54.571"/>
<rect x="257.915" y="340.247" fill="#728E79" width="213.976" height="54.572"/>
<rect x="417.313" fill="#414042" width="54.577" height="231.105"/>
<rect y="462.212" fill="#414042" width="257.915" height="54.571"/>
<rect fill="#414042" width="54.578" height="516.784"/>
<rect fill="#414042" width="471.891" height="54.571"/>
<rect x="417.313" y="231.105" fill="#728E79" width="54.577" height="285.678"/>
<rect x="257.915" y="462.212" fill="#728E79" width="213.976" height="54.571"/>
<g>
	<path fill="#728D78" d="M29.64,569.959h-4.62v-17.971H4.619v17.971H0v-39.403h4.619v17.283h20.401v-17.283h4.62V569.959z"/>
	<path fill="#728D78" d="M87.391,569.959h-5.114l-4.179-11.046H61.38l-3.932,11.046h-5.142l15.123-39.403h4.784L87.391,569.959z
		 M76.585,554.764l-6.186-16.789c-0.202-0.55-0.404-1.429-0.604-2.638h-0.11c-0.183,1.117-0.395,1.997-0.632,2.638l-6.131,16.789
		H76.585z"/>
	<path fill="#728D78" d="M131.422,530.556l-13.006,24.84v14.563h-4.619v-14.453l-12.675-24.95h5.251l8.826,17.806
		c0.11,0.22,0.431,1.026,0.962,2.418h0.083c0.183-0.622,0.531-1.429,1.044-2.418l9.238-17.806H131.422z"/>
	<path fill="#728D78" d="M153.814,569.959v-39.403h10.888c13.895,0,20.841,6.402,20.841,19.207c0,6.082-1.929,10.969-5.788,14.659
		c-3.859,3.691-9.023,5.537-15.494,5.537H153.814z M158.434,534.733v31.05h5.884c5.169,0,9.193-1.383,12.071-4.149
		c2.877-2.766,4.316-6.686,4.316-11.761c0-10.093-5.371-15.14-16.112-15.14H158.434z"/>
	<path fill="#728D78" d="M231.087,569.959H210.19v-39.403h20.017v4.177H214.81v13.106h14.243v4.149H214.81v13.794h16.277V569.959z"
		/>
	<path fill="#728D78" d="M287.354,569.959h-5.664l-20.291-31.407c-0.515-0.787-0.935-1.612-1.266-2.474h-0.164
		c0.146,0.844,0.221,2.647,0.221,5.414v28.467h-4.62v-39.403h5.994l19.742,30.913c0.825,1.282,1.355,2.161,1.595,2.638h0.109
		c-0.184-1.136-0.274-3.068-0.274-5.798v-27.753h4.618V569.959z"/>
	<path fill="#728D78" d="M372.527,530.556l-13.005,24.84v14.563h-4.618v-14.453l-12.676-24.95h5.251l8.827,17.806
		c0.109,0.22,0.43,1.026,0.962,2.418h0.082c0.184-0.622,0.532-1.429,1.044-2.418l9.239-17.806H372.527z"/>
	<path fill="#728D78" d="M421.097,569.959h-5.115l-4.179-11.046h-16.718l-3.931,11.046h-5.143l15.123-39.403h4.784L421.097,569.959z
		 M410.291,554.764l-6.188-16.789c-0.201-0.55-0.403-1.429-0.604-2.638h-0.11c-0.184,1.117-0.395,1.997-0.633,2.638l-6.131,16.789
		H410.291z"/>
	<path fill="#728D78" d="M471.891,554.022c0,11.064-4.995,16.597-14.985,16.597c-9.568,0-14.352-5.321-14.352-15.965v-24.098h4.619
		v23.796c0,8.078,3.409,12.118,10.228,12.118c6.58,0,9.871-3.902,9.871-11.706v-24.208h4.619V554.022z"/>
</g>
</svg>
