<?xml version="1.0" encoding="utf-8"?>
<!-- Generator: Adobe Illustrator 16.0.0, SVG Export Plug-In . SVG Version: 6.00 Build 0)  -->
<!DOCTYPE svg PUBLIC "-//W3C//DTD SVG 1.1//EN" "http://www.w3.org/Graphics/SVG/1.1/DTD/svg11.dtd">
<svg version="1.1" id="Layer_1" xmlns="http://www.w3.org/2000/svg" xmlns:xlink="http://www.w3.org/1999/xlink" x="0px" y="0px"
	 width="471.891px" height="578.459px" viewBox="0 0 471.891 578.459" enable-background="new 0 0 471.891 578.459"
	 xml:space="preserve">
<path fill="#728E79" d="M95.387,121.963h54.57v272.854h-54.57V121.963z"/>
<path fill="#728E79" d="M257.915,121.963h54.573v272.854h-54.573V121.963z"/>
<path fill="#728E79" d="M95.387,231.105H312.49v54.571H95.387V231.105z"/>
<path fill="#728E79" d="M257.915,340.247h213.976v54.572H257.915V340.247z"/>
<path fill="#414042" d="M417.313,0h54.577v231.105h-54.577V0z"/>
<path fill="#414042" d="M0,462.212h257.915v54.571H0V462.212z"/>
<path fill="#414042" d="M0,0h54.578v516.784H0V0z"/>
<path fill="#414042" d="M0,0h471.891v54.571H0V0z"/>
<path fill="#728E79" d="M417.313,231.105h54.577v285.678h-54.577V231.105z"/>
<path fill="#728E79" d="M257.915,462.212h213.976v54.571H257.915V462.212z"/>
<g>
	<path fill="#728D78" d="M29.64,569.959h-4.62v-17.971h-20.4v17.971H0v-39.403h4.619v17.283h20.4v-17.283h4.62V569.959z"/>
	<path fill="#728D78" d="M87.391,569.959h-5.114l-4.179-11.046H61.38l-3.932,11.046h-5.143l15.123-39.403h4.784L87.391,569.959z
		 M76.585,554.764l-6.187-16.789c-0.202-0.55-0.403-1.429-0.604-2.638h-0.11c-0.183,1.117-0.395,1.997-0.632,2.638l-6.131,16.789
		H76.585z"/>
	<path fill="#728D78" d="M131.422,530.556l-13.006,24.841v14.563h-4.619v-14.453l-12.675-24.95h5.251l8.826,17.807
		c0.109,0.22,0.431,1.025,0.962,2.418h0.083c0.183-0.622,0.53-1.429,1.044-2.418l9.237-17.807H131.422z"/>
	<path fill="#728D78" d="M153.814,569.959v-39.403h10.889c13.895,0,20.841,6.402,20.841,19.207c0,6.082-1.93,10.97-5.788,14.659
		c-3.859,3.691-9.023,5.537-15.494,5.537H153.814L153.814,569.959z M158.434,534.733v31.05h5.884c5.169,0,9.193-1.383,12.071-4.149
		c2.877-2.766,4.316-6.686,4.316-11.761c0-10.093-5.371-15.14-16.112-15.14H158.434z"/>
	<path fill="#728D78" d="M231.087,569.959H210.19v-39.403h20.018v4.178H214.81v13.105h14.243v4.149H214.81v13.794h16.277V569.959z"
		/>
	<path fill="#728D78" d="M287.354,569.959h-5.664l-20.291-31.407c-0.515-0.787-0.935-1.611-1.266-2.474h-0.164
		c0.146,0.844,0.221,2.646,0.221,5.414v28.467h-4.62v-39.403h5.994l19.742,30.913c0.825,1.282,1.355,2.161,1.595,2.639h0.109
		c-0.184-1.137-0.274-3.068-0.274-5.799v-27.753h4.618V569.959L287.354,569.959z"/>
	<path fill="#728D78" d="M372.527,530.556l-13.005,24.841v14.563h-4.618v-14.453l-12.676-24.95h5.251l8.827,17.807
		c0.108,0.22,0.43,1.025,0.962,2.418h0.082c0.184-0.622,0.532-1.429,1.044-2.418l9.239-17.807H372.527z"/>
	<path fill="#728D78" d="M421.097,569.959h-5.115l-4.179-11.046h-16.718l-3.932,11.046h-5.143l15.123-39.403h4.784L421.097,569.959z
		 M410.29,554.764l-6.188-16.789c-0.201-0.55-0.403-1.429-0.604-2.638h-0.109c-0.185,1.117-0.396,1.997-0.633,2.638l-6.131,16.789
		H410.29z"/>
	<path fill="#728D78" d="M471.891,554.021c0,11.064-4.995,16.598-14.985,16.598c-9.567,0-14.352-5.321-14.352-15.965v-24.099h4.619
		v23.796c0,8.078,3.408,12.118,10.228,12.118c6.58,0,9.871-3.901,9.871-11.706v-24.208h4.619V554.021z"/>
</g>
</svg>
